<svg xmlns="http://www.w3.org/2000/svg" xmlns:xlink="http://www.w3.org/1999/xlink" width="500" zoomAndPan="magnify" viewBox="0 0 375 374.999991" height="500" preserveAspectRatio="xMidYMid meet" version="1.0"><defs><g/><clipPath id="7651ce23b4"><path d="M 132 37.5 L 212 37.5 L 212 87 L 132 87 Z M 132 37.5 " clip-rule="nonzero"/></clipPath><clipPath id="1acbf10faf"><path d="M 124.957031 57 L 171 57 L 171 142 L 124.957031 142 Z M 124.957031 57 " clip-rule="nonzero"/></clipPath><clipPath id="06096e587b"><path d="M 164 121 L 239 121 L 239 169.5 L 164 169.5 Z M 164 121 " clip-rule="nonzero"/></clipPath><clipPath id="58397ec626"><path d="M 124.957031 129 L 172 129 L 172 169.5 L 124.957031 169.5 Z M 124.957031 129 " clip-rule="nonzero"/></clipPath><clipPath id="0ea6e64be5"><path d="M 204 37.5 L 250.957031 37.5 L 250.957031 77 L 204 77 Z M 204 37.5 " clip-rule="nonzero"/></clipPath><clipPath id="6bf00b0221"><path d="M 210 70 L 250.957031 70 L 250.957031 149 L 210 149 Z M 210 70 " clip-rule="nonzero"/></clipPath><clipPath id="fdd4ab02d4"><path d="M 205 64 L 250.957031 64 L 250.957031 155 L 205 155 Z M 205 64 " clip-rule="nonzero"/></clipPath></defs><path stroke-linecap="butt" transform="matrix(0.0741157, 0, 0, 0.0741157, 113.893144, 29.443625)" fill-opacity="1" fill="#d6fe00" fill-rule="nonzero" stroke-linejoin="miter" d="M 1254.550737 1050.112929 C 1257.185976 1142.978762 1193.940233 1224.881999 1103.49882 1246.174733 L 752.484945 1328.710428 L 741.522349 926.098567 C 739.308748 840.716814 797.284013 765.612494 880.241346 746.059018 L 1244.00978 660.466445 Z M 1254.550737 1050.112929 " stroke="#000000" stroke-width="5.488" stroke-opacity="1" stroke-miterlimit="10"/><path fill="#d6fe00" d="M 205.914062 72.292969 L 172.332031 80.199219 C 170.964844 80.527344 169.535156 80.25 168.378906 79.453125 L 140.460938 59.929688 C 136.980469 57.488281 138.019531 52.054688 142.167969 51.09375 L 195.699219 38.492188 C 198.992188 37.71875 202.390625 39.324219 203.851562 42.371094 C 204.703125 44.144531 205.207031 46.128906 205.265625 48.246094 Z M 205.914062 72.292969 " fill-opacity="1" fill-rule="nonzero"/><g clip-path="url(#7651ce23b4)"><path stroke-linecap="butt" transform="matrix(0.0741157, 0, 0, 0.0741157, 113.893144, 29.443625)" fill="none" stroke-linejoin="miter" d="M 1241.585359 578.14157 L 788.482314 684.816057 C 770.035639 689.243259 750.745687 685.501219 735.14507 674.749442 L 358.463964 411.330922 C 311.504 378.39043 325.523473 305.078073 381.495956 292.112696 L 1103.762344 122.087056 C 1148.192479 111.651508 1194.045642 133.313175 1213.757232 174.422908 C 1225.246876 198.350881 1232.045793 225.124913 1232.836365 253.690907 Z M 1241.585359 578.14157 " stroke="#000000" stroke-width="5.488" stroke-opacity="1" stroke-miterlimit="10"/></g><path fill="#d6fe00" d="M 164.898438 129.042969 L 139.828125 134.949219 C 136.335938 135.769531 132.890625 135.261719 129.976562 133.796875 C 128.128906 132.871094 126.953125 130.988281 126.894531 128.921875 L 125.28125 69.398438 C 125.132812 64.207031 130.960938 61.082031 135.207031 64.042969 L 161.074219 82.136719 C 162.71875 83.292969 163.710938 85.148438 163.757812 87.148438 Z M 164.898438 129.042969 " fill-opacity="1" fill-rule="nonzero"/><g clip-path="url(#1acbf10faf)"><path stroke-linecap="butt" transform="matrix(0.0741157, 0, 0, 0.0741157, 113.893144, 29.443625)" fill="none" stroke-linejoin="miter" d="M 688.185106 1343.836701 L 349.925789 1423.526338 C 302.80771 1434.594343 256.322089 1427.742721 217.004319 1407.978426 C 192.074955 1395.487392 176.210814 1370.083685 175.420242 1342.202853 L 153.653166 539.087323 C 151.650384 469.042662 230.285925 426.878834 287.576027 466.829061 L 636.58712 710.95763 C 658.775835 726.558247 672.162851 751.59302 672.795308 778.577871 Z M 688.185106 1343.836701 " stroke="#000000" stroke-width="5.488" stroke-opacity="1" stroke-miterlimit="10"/></g><path fill="#d6fe00" d="M 228.023438 157.125 L 179 168.652344 C 176.316406 169.285156 173.535156 168.058594 172.191406 165.648438 C 171.1875 163.847656 170.589844 161.777344 170.527344 159.53125 L 169.84375 134.589844 L 200.578125 127.351562 C 202.367188 126.929688 204.269531 127.300781 205.785156 128.359375 L 230.269531 145.492188 C 234.859375 148.695312 233.492188 155.839844 228.023438 157.125 Z M 228.023438 157.125 " fill-opacity="1" fill-rule="nonzero"/><g clip-path="url(#06096e587b)"><path stroke-linecap="butt" transform="matrix(0.0741157, 0, 0, 0.0741157, 113.893144, 29.443625)" fill="none" stroke-linejoin="miter" d="M 1539.894449 1722.731408 L 878.449384 1878.263232 C 842.241196 1886.801407 804.715388 1870.252104 786.584941 1837.733251 C 773.039811 1813.436345 764.975979 1785.502808 764.132703 1755.197557 L 754.909365 1418.677498 L 1169.590622 1321.015529 C 1193.729414 1315.323412 1219.396645 1320.330367 1239.846102 1334.613364 L 1570.1997 1565.776555 C 1632.127824 1608.99448 1613.681149 1705.391534 1539.894449 1722.731408 Z M 1539.894449 1722.731408 " stroke="#000000" stroke-width="5.488" stroke-opacity="1" stroke-miterlimit="10"/></g><path fill="#d6fe00" d="M 165.742188 160.117188 C 165.890625 165.292969 160.066406 168.433594 155.820312 165.453125 L 129.949219 147.363281 C 129.945312 147.359375 129.941406 147.355469 129.9375 147.351562 C 129.140625 146.78125 129.058594 145.613281 129.761719 144.929688 C 130.550781 144.167969 131.566406 143.589844 132.78125 143.3125 L 165.078125 135.710938 Z M 165.742188 160.117188 " fill-opacity="1" fill-rule="nonzero"/><g clip-path="url(#58397ec626)"><path stroke-linecap="butt" transform="matrix(0.0741157, 0, 0, 0.0741157, 113.893144, 29.443625)" fill="none" stroke-linejoin="miter" d="M 699.56934 1763.103274 C 701.572122 1832.937116 622.989286 1875.311764 565.699183 1835.098012 L 216.635385 1591.022148 C 216.58268 1590.969443 216.529975 1590.916738 216.477271 1590.864034 C 205.725494 1583.169135 204.618694 1567.410404 214.105555 1558.187066 C 224.751922 1547.909633 238.455166 1540.109325 254.846355 1536.367285 L 690.609526 1433.803771 Z M 699.56934 1763.103274 " stroke="#000000" stroke-width="5.488" stroke-opacity="1" stroke-miterlimit="10"/></g><path fill="#d6fe00" d="M 244.539062 61.566406 C 245.21875 62.042969 245.023438 63.109375 244.214844 63.292969 C 244.210938 63.292969 244.203125 63.296875 244.195312 63.296875 L 210.777344 71.15625 L 210.128906 47.289062 C 210.015625 43.15625 214.636719 40.667969 218.019531 43.023438 Z M 244.539062 61.566406 " fill-opacity="1" fill-rule="nonzero"/><g clip-path="url(#0ea6e64be5)"><path stroke-linecap="butt" transform="matrix(0.0741157, 0, 0, 0.0741157, 113.893144, 29.443625)" fill="none" stroke-linejoin="miter" d="M 1762.730284 433.414227 C 1771.900917 439.844211 1769.265677 454.232618 1758.355787 456.709743 C 1758.303082 456.709743 1758.197672 456.762447 1758.092263 456.762447 L 1307.202818 562.804477 L 1298.453824 240.778234 C 1296.925385 185.01657 1359.275147 151.443622 1404.917491 183.224608 Z M 1762.730284 433.414227 " stroke="#000000" stroke-width="5.488" stroke-opacity="1" stroke-miterlimit="10"/></g><g clip-path="url(#6bf00b0221)"><path fill="#d6fe00" d="M 250.738281 143.117188 C 250.851562 147.25 246.214844 149.738281 242.828125 147.363281 L 214.339844 127.433594 C 213.039062 126.519531 212.242188 125.039062 212.195312 123.445312 L 210.941406 77.253906 L 237.347656 71.039062 C 239.402344 70.558594 241.441406 70.578125 243.347656 71.011719 C 246.554688 71.742188 248.855469 74.5625 248.949219 77.851562 Z M 250.738281 143.117188 " fill-opacity="1" fill-rule="nonzero"/></g><g clip-path="url(#fdd4ab02d4)"><path stroke-linecap="butt" transform="matrix(0.0741157, 0, 0, 0.0741157, 113.893144, 29.443625)" fill="none" stroke-linejoin="miter" d="M 1846.372779 1533.732046 C 1847.901218 1589.493709 1785.340637 1623.066658 1739.645588 1591.022148 L 1355.269583 1322.12233 C 1337.718889 1309.78941 1326.967113 1289.814296 1326.334655 1268.310743 L 1309.416419 645.076648 L 1665.700773 561.223333 C 1693.42349 554.740645 1720.935389 555.004168 1746.655324 560.8544 C 1789.925954 570.710195 1820.969073 608.76305 1822.233987 653.14048 Z M 1846.372779 1533.732046 " stroke="#000000" stroke-width="5.488" stroke-opacity="1" stroke-miterlimit="10"/></g><g fill="#d6fe00" fill-opacity="1"><g transform="translate(66.686769, 249.314517)"><g><path d="M 57.21875 -46.875 L 57.21875 0 L 45.796875 0 L 45.796875 -28.109375 L 35.3125 0 L 26.109375 0 L 15.5625 -28.171875 L 15.5625 0 L 4.140625 0 L 4.140625 -46.875 L 17.625 -46.875 L 30.78125 -14.421875 L 43.796875 -46.875 Z M 57.21875 -46.875 "/></g></g></g><g fill="#d6fe00" fill-opacity="1"><g transform="translate(127.963625, 249.314517)"><g><path d="M 21.09375 0.53125 C 17.445312 0.53125 14.164062 -0.242188 11.25 -1.796875 C 8.332031 -3.359375 6.039062 -5.582031 4.375 -8.46875 C 2.707031 -11.363281 1.875 -14.75 1.875 -18.625 C 1.875 -22.457031 2.71875 -25.828125 4.40625 -28.734375 C 6.09375 -31.648438 8.40625 -33.890625 11.34375 -35.453125 C 14.28125 -37.015625 17.578125 -37.796875 21.234375 -37.796875 C 24.878906 -37.796875 28.171875 -37.015625 31.109375 -35.453125 C 34.046875 -33.890625 36.359375 -31.648438 38.046875 -28.734375 C 39.742188 -25.828125 40.59375 -22.457031 40.59375 -18.625 C 40.59375 -14.800781 39.734375 -11.429688 38.015625 -8.515625 C 36.304688 -5.597656 33.972656 -3.359375 31.015625 -1.796875 C 28.054688 -0.242188 24.75 0.53125 21.09375 0.53125 Z M 21.09375 -9.34375 C 23.28125 -9.34375 25.140625 -10.144531 26.671875 -11.75 C 28.203125 -13.351562 28.96875 -15.644531 28.96875 -18.625 C 28.96875 -21.601562 28.222656 -23.894531 26.734375 -25.5 C 25.242188 -27.101562 23.410156 -27.90625 21.234375 -27.90625 C 19.003906 -27.90625 17.15625 -27.113281 15.6875 -25.53125 C 14.21875 -23.957031 13.484375 -21.65625 13.484375 -18.625 C 13.484375 -15.644531 14.207031 -13.351562 15.65625 -11.75 C 17.101562 -10.144531 18.914062 -9.34375 21.09375 -9.34375 Z M 21.09375 -9.34375 "/></g></g></g><g fill="#d6fe00" fill-opacity="1"><g transform="translate(170.483628, 249.314517)"><g><path d="M 21.703125 -46.875 C 26.640625 -46.875 30.953125 -45.894531 34.640625 -43.9375 C 38.335938 -41.976562 41.195312 -39.226562 43.21875 -35.6875 C 45.25 -32.144531 46.265625 -28.0625 46.265625 -23.4375 C 46.265625 -18.851562 45.25 -14.78125 43.21875 -11.21875 C 41.195312 -7.65625 38.328125 -4.894531 34.609375 -2.9375 C 30.898438 -0.976562 26.597656 0 21.703125 0 L 4.140625 0 L 4.140625 -46.875 Z M 20.96875 -9.875 C 25.28125 -9.875 28.640625 -11.050781 31.046875 -13.40625 C 33.453125 -15.769531 34.65625 -19.113281 34.65625 -23.4375 C 34.65625 -27.75 33.453125 -31.109375 31.046875 -33.515625 C 28.640625 -35.921875 25.28125 -37.125 20.96875 -37.125 L 15.5625 -37.125 L 15.5625 -9.875 Z M 20.96875 -9.875 "/></g></g></g><g fill="#d6fe00" fill-opacity="1"><g transform="translate(219.011173, 249.314517)"><g><path d="M 33.3125 -8.28125 L 15.828125 -8.28125 L 13.015625 0 L 1.0625 0 L 18.03125 -46.875 L 31.25 -46.875 L 48.203125 0 L 36.125 0 Z M 30.375 -17.09375 L 24.5625 -34.25 L 18.828125 -17.09375 Z M 30.375 -17.09375 "/></g></g></g><g fill="#d6fe00" fill-opacity="1"><g transform="translate(268.206203, 249.314517)"><g><path d="M 21.09375 0.46875 C 17.664062 0.46875 14.59375 -0.0859375 11.875 -1.203125 C 9.164062 -2.316406 7 -3.960938 5.375 -6.140625 C 3.75 -8.316406 2.890625 -10.941406 2.796875 -14.015625 L 14.953125 -14.015625 C 15.128906 -12.285156 15.726562 -10.960938 16.75 -10.046875 C 17.78125 -9.128906 19.117188 -8.671875 20.765625 -8.671875 C 22.453125 -8.671875 23.785156 -9.0625 24.765625 -9.84375 C 25.742188 -10.625 26.234375 -11.707031 26.234375 -13.09375 C 26.234375 -14.25 25.84375 -15.203125 25.0625 -15.953125 C 24.289062 -16.710938 23.335938 -17.335938 22.203125 -17.828125 C 21.066406 -18.316406 19.453125 -18.875 17.359375 -19.5 C 14.328125 -20.425781 11.851562 -21.359375 9.9375 -22.296875 C 8.03125 -23.234375 6.382812 -24.613281 5 -26.4375 C 3.625 -28.257812 2.9375 -30.640625 2.9375 -33.578125 C 2.9375 -37.941406 4.515625 -41.359375 7.671875 -43.828125 C 10.835938 -46.296875 14.957031 -47.53125 20.03125 -47.53125 C 25.195312 -47.53125 29.359375 -46.296875 32.515625 -43.828125 C 35.671875 -41.359375 37.363281 -37.921875 37.59375 -33.515625 L 25.234375 -33.515625 C 25.148438 -35.023438 24.59375 -36.210938 23.5625 -37.078125 C 22.539062 -37.953125 21.226562 -38.390625 19.625 -38.390625 C 18.25 -38.390625 17.132812 -38.019531 16.28125 -37.28125 C 15.4375 -36.550781 15.015625 -35.5 15.015625 -34.125 C 15.015625 -32.601562 15.726562 -31.421875 17.15625 -30.578125 C 18.582031 -29.734375 20.804688 -28.820312 23.828125 -27.84375 C 26.859375 -26.820312 29.316406 -25.84375 31.203125 -24.90625 C 33.097656 -23.96875 34.734375 -22.609375 36.109375 -20.828125 C 37.492188 -19.046875 38.1875 -16.753906 38.1875 -13.953125 C 38.1875 -11.285156 37.507812 -8.859375 36.15625 -6.671875 C 34.800781 -4.492188 32.832031 -2.757812 30.25 -1.46875 C 27.664062 -0.175781 24.613281 0.46875 21.09375 0.46875 Z M 21.09375 0.46875 "/></g></g></g><g fill="#edeef0" fill-opacity="1"><g transform="translate(51.321237, 302.972152)"><g><path d="M 16.53125 -14.59375 L 16.53125 0 L 14.609375 0 L 14.609375 -10.875 L 9.765625 0 L 8.40625 0 L 3.546875 -10.890625 L 3.546875 0 L 1.625 0 L 1.625 -14.59375 L 3.6875 -14.59375 L 9.078125 -2.53125 L 14.484375 -14.59375 Z M 16.53125 -14.59375 "/></g></g></g><g fill="#edeef0" fill-opacity="1"><g transform="translate(76.067766, 302.972152)"><g><path d="M 8.28125 0.140625 C 6.914062 0.140625 5.671875 -0.175781 4.546875 -0.8125 C 3.421875 -1.445312 2.53125 -2.335938 1.875 -3.484375 C 1.226562 -4.628906 0.90625 -5.921875 0.90625 -7.359375 C 0.90625 -8.785156 1.226562 -10.070312 1.875 -11.21875 C 2.53125 -12.363281 3.421875 -13.253906 4.546875 -13.890625 C 5.671875 -14.535156 6.914062 -14.859375 8.28125 -14.859375 C 9.65625 -14.859375 10.90625 -14.535156 12.03125 -13.890625 C 13.15625 -13.253906 14.039062 -12.367188 14.6875 -11.234375 C 15.332031 -10.097656 15.65625 -8.804688 15.65625 -7.359375 C 15.65625 -5.910156 15.332031 -4.613281 14.6875 -3.46875 C 14.039062 -2.332031 13.15625 -1.445312 12.03125 -0.8125 C 10.90625 -0.175781 9.65625 0.140625 8.28125 0.140625 Z M 8.28125 -1.515625 C 9.3125 -1.515625 10.234375 -1.753906 11.046875 -2.234375 C 11.867188 -2.710938 12.515625 -3.394531 12.984375 -4.28125 C 13.460938 -5.164062 13.703125 -6.191406 13.703125 -7.359375 C 13.703125 -8.535156 13.460938 -9.5625 12.984375 -10.4375 C 12.515625 -11.320312 11.875 -12 11.0625 -12.46875 C 10.25 -12.945312 9.320312 -13.1875 8.28125 -13.1875 C 7.238281 -13.1875 6.3125 -12.945312 5.5 -12.46875 C 4.6875 -12 4.039062 -11.320312 3.5625 -10.4375 C 3.09375 -9.5625 2.859375 -8.535156 2.859375 -7.359375 C 2.859375 -6.191406 3.09375 -5.164062 3.5625 -4.28125 C 4.039062 -3.394531 4.691406 -2.710938 5.515625 -2.234375 C 6.335938 -1.753906 7.257812 -1.515625 8.28125 -1.515625 Z M 8.28125 -1.515625 "/></g></g></g><g fill="#edeef0" fill-opacity="1"><g transform="translate(99.235132, 302.972152)"><g><path d="M 6.203125 -14.6875 C 7.796875 -14.6875 9.179688 -14.390625 10.359375 -13.796875 C 11.535156 -13.203125 12.4375 -12.347656 13.0625 -11.234375 C 13.6875 -10.117188 14 -8.8125 14 -7.3125 C 14 -5.8125 13.6875 -4.507812 13.0625 -3.40625 C 12.4375 -2.300781 11.535156 -1.457031 10.359375 -0.875 C 9.179688 -0.289062 7.796875 0 6.203125 0 L 1.625 0 L 1.625 -14.6875 Z M 6.203125 -1.578125 C 8.097656 -1.578125 9.539062 -2.078125 10.53125 -3.078125 C 11.53125 -4.085938 12.03125 -5.5 12.03125 -7.3125 C 12.03125 -9.132812 11.523438 -10.554688 10.515625 -11.578125 C 9.515625 -12.609375 8.078125 -13.125 6.203125 -13.125 L 3.546875 -13.125 L 3.546875 -1.578125 Z M 6.203125 -1.578125 "/></g></g></g><g fill="#edeef0" fill-opacity="1"><g transform="translate(120.739143, 302.972152)"><g><path d="M 3.546875 -13.125 L 3.546875 -8.21875 L 8.890625 -8.21875 L 8.890625 -6.640625 L 3.546875 -6.640625 L 3.546875 -1.578125 L 9.53125 -1.578125 L 9.53125 0 L 1.625 0 L 1.625 -14.71875 L 9.53125 -14.71875 L 9.53125 -13.125 Z M 3.546875 -13.125 "/></g></g></g><g fill="#edeef0" fill-opacity="1"><g transform="translate(138.158422, 302.972152)"><g/></g></g><g fill="#edeef0" fill-opacity="1"><g transform="translate(150.398107, 302.972152)"><g><path d="M 6.203125 -14.6875 C 7.796875 -14.6875 9.179688 -14.390625 10.359375 -13.796875 C 11.535156 -13.203125 12.4375 -12.347656 13.0625 -11.234375 C 13.6875 -10.117188 14 -8.8125 14 -7.3125 C 14 -5.8125 13.6875 -4.507812 13.0625 -3.40625 C 12.4375 -2.300781 11.535156 -1.457031 10.359375 -0.875 C 9.179688 -0.289062 7.796875 0 6.203125 0 L 1.625 0 L 1.625 -14.6875 Z M 6.203125 -1.578125 C 8.097656 -1.578125 9.539062 -2.078125 10.53125 -3.078125 C 11.53125 -4.085938 12.03125 -5.5 12.03125 -7.3125 C 12.03125 -9.132812 11.523438 -10.554688 10.515625 -11.578125 C 9.515625 -12.609375 8.078125 -13.125 6.203125 -13.125 L 3.546875 -13.125 L 3.546875 -1.578125 Z M 6.203125 -1.578125 "/></g></g></g><g fill="#edeef0" fill-opacity="1"><g transform="translate(171.902118, 302.972152)"><g><path d="M 3.546875 -13.125 L 3.546875 -8.21875 L 8.890625 -8.21875 L 8.890625 -6.640625 L 3.546875 -6.640625 L 3.546875 -1.578125 L 9.53125 -1.578125 L 9.53125 0 L 1.625 0 L 1.625 -14.71875 L 9.53125 -14.71875 L 9.53125 -13.125 Z M 3.546875 -13.125 "/></g></g></g><g fill="#edeef0" fill-opacity="1"><g transform="translate(189.321397, 302.972152)"><g><path d="M 9.921875 -14.6875 L 9.921875 -13.125 L 3.546875 -13.125 L 3.546875 -8.171875 L 8.71875 -8.171875 L 8.71875 -6.625 L 3.546875 -6.625 L 3.546875 0 L 1.625 0 L 1.625 -14.6875 Z M 9.921875 -14.6875 "/></g></g></g><g fill="#edeef0" fill-opacity="1"><g transform="translate(206.551195, 302.972152)"><g><path d="M 3.546875 -14.6875 L 3.546875 0 L 1.625 0 L 1.625 -14.6875 Z M 3.546875 -14.6875 "/></g></g></g><g fill="#edeef0" fill-opacity="1"><g transform="translate(218.348725, 302.972152)"><g/></g></g><g fill="#edeef0" fill-opacity="1"><g transform="translate(230.58841, 302.972152)"><g><path d="M 10.3125 -3.265625 L 3.90625 -3.265625 L 2.71875 0 L 0.703125 0 L 6 -14.609375 L 8.21875 -14.609375 L 13.515625 0 L 11.484375 0 Z M 9.765625 -4.828125 L 7.109375 -12.25 L 4.453125 -4.828125 Z M 9.765625 -4.828125 "/></g></g></g><g fill="#edeef0" fill-opacity="1"><g transform="translate(251.397592, 302.972152)"><g><path d="M 12.75 -10.4375 C 12.34375 -11.289062 11.753906 -11.953125 10.984375 -12.421875 C 10.210938 -12.890625 9.3125 -13.125 8.28125 -13.125 C 7.257812 -13.125 6.335938 -12.890625 5.515625 -12.421875 C 4.691406 -11.953125 4.039062 -11.273438 3.5625 -10.390625 C 3.09375 -9.515625 2.859375 -8.503906 2.859375 -7.359375 C 2.859375 -6.203125 3.09375 -5.1875 3.5625 -4.3125 C 4.039062 -3.445312 4.691406 -2.78125 5.515625 -2.3125 C 6.335938 -1.84375 7.257812 -1.609375 8.28125 -1.609375 C 9.71875 -1.609375 10.898438 -2.035156 11.828125 -2.890625 C 12.753906 -3.742188 13.296875 -4.898438 13.453125 -6.359375 L 7.59375 -6.359375 L 7.59375 -7.921875 L 15.5 -7.921875 L 15.5 -6.453125 C 15.382812 -5.242188 15.003906 -4.132812 14.359375 -3.125 C 13.710938 -2.125 12.859375 -1.332031 11.796875 -0.75 C 10.742188 -0.164062 9.570312 0.125 8.28125 0.125 C 6.914062 0.125 5.671875 -0.191406 4.546875 -0.828125 C 3.421875 -1.472656 2.53125 -2.363281 1.875 -3.5 C 1.226562 -4.632812 0.90625 -5.921875 0.90625 -7.359375 C 0.90625 -8.785156 1.226562 -10.070312 1.875 -11.21875 C 2.53125 -12.363281 3.421875 -13.253906 4.546875 -13.890625 C 5.671875 -14.535156 6.914062 -14.859375 8.28125 -14.859375 C 9.84375 -14.859375 11.222656 -14.472656 12.421875 -13.703125 C 13.628906 -12.929688 14.503906 -11.84375 15.046875 -10.4375 Z M 12.75 -10.4375 "/></g></g></g><g fill="#edeef0" fill-opacity="1"><g transform="translate(274.396525, 302.972152)"><g><path d="M 3.546875 -13.125 L 3.546875 -8.21875 L 8.890625 -8.21875 L 8.890625 -6.640625 L 3.546875 -6.640625 L 3.546875 -1.578125 L 9.53125 -1.578125 L 9.53125 0 L 1.625 0 L 1.625 -14.71875 L 9.53125 -14.71875 L 9.53125 -13.125 Z M 3.546875 -13.125 "/></g></g></g><g fill="#edeef0" fill-opacity="1"><g transform="translate(291.815804, 302.972152)"><g><path d="M 13.171875 0 L 11.25 0 L 3.546875 -11.703125 L 3.546875 0 L 1.625 0 L 1.625 -14.71875 L 3.546875 -14.71875 L 11.25 -3.03125 L 11.25 -14.71875 L 13.171875 -14.71875 Z M 13.171875 0 "/></g></g></g><g fill="#edeef0" fill-opacity="1"><g transform="translate(313.235598, 302.972152)"><g><path d="M 10.671875 -14.6875 L 10.671875 -13.125 L 6.65625 -13.125 L 6.65625 0 L 4.75 0 L 4.75 -13.125 L 0.71875 -13.125 L 0.71875 -14.6875 Z M 10.671875 -14.6875 "/></g></g></g><g fill="#edeef0" fill-opacity="1"><g transform="translate(135.717213, 331.643389)"><g><path d="M 6.28125 0.140625 C 5.3125 0.140625 4.441406 -0.03125 3.671875 -0.375 C 2.910156 -0.71875 2.3125 -1.191406 1.875 -1.796875 C 1.4375 -2.410156 1.210938 -3.117188 1.203125 -3.921875 L 3.25 -3.921875 C 3.3125 -3.234375 3.59375 -2.648438 4.09375 -2.171875 C 4.59375 -1.703125 5.320312 -1.46875 6.28125 -1.46875 C 7.195312 -1.46875 7.914062 -1.695312 8.4375 -2.15625 C 8.96875 -2.613281 9.234375 -3.203125 9.234375 -3.921875 C 9.234375 -4.484375 9.078125 -4.9375 8.765625 -5.28125 C 8.460938 -5.632812 8.078125 -5.898438 7.609375 -6.078125 C 7.140625 -6.265625 6.515625 -6.46875 5.734375 -6.6875 C 4.765625 -6.9375 3.988281 -7.1875 3.40625 -7.4375 C 2.820312 -7.6875 2.320312 -8.082031 1.90625 -8.625 C 1.488281 -9.164062 1.28125 -9.894531 1.28125 -10.8125 C 1.28125 -11.613281 1.484375 -12.320312 1.890625 -12.9375 C 2.304688 -13.5625 2.878906 -14.039062 3.609375 -14.375 C 4.347656 -14.707031 5.195312 -14.875 6.15625 -14.875 C 7.53125 -14.875 8.65625 -14.53125 9.53125 -13.84375 C 10.414062 -13.15625 10.914062 -12.242188 11.03125 -11.109375 L 8.921875 -11.109375 C 8.847656 -11.671875 8.550781 -12.164062 8.03125 -12.59375 C 7.507812 -13.019531 6.820312 -13.234375 5.96875 -13.234375 C 5.164062 -13.234375 4.507812 -13.023438 4 -12.609375 C 3.5 -12.203125 3.25 -11.625 3.25 -10.875 C 3.25 -10.34375 3.398438 -9.90625 3.703125 -9.5625 C 4.003906 -9.226562 4.375 -8.972656 4.8125 -8.796875 C 5.257812 -8.617188 5.882812 -8.421875 6.6875 -8.203125 C 7.65625 -7.929688 8.429688 -7.664062 9.015625 -7.40625 C 9.609375 -7.144531 10.113281 -6.742188 10.53125 -6.203125 C 10.957031 -5.660156 11.171875 -4.925781 11.171875 -4 C 11.171875 -3.289062 10.976562 -2.617188 10.59375 -1.984375 C 10.21875 -1.347656 9.65625 -0.832031 8.90625 -0.4375 C 8.164062 -0.0507812 7.289062 0.140625 6.28125 0.140625 Z M 6.28125 0.140625 "/></g></g></g><g fill="#edeef0" fill-opacity="1"><g transform="translate(154.694583, 331.643389)"><g><path d="M 20.09375 -14.6875 L 15.828125 0 L 13.6875 0 L 10.265625 -11.828125 L 6.71875 0 L 4.59375 0.015625 L 0.484375 -14.6875 L 2.53125 -14.6875 L 5.734375 -2.234375 L 9.28125 -14.6875 L 11.421875 -14.6875 L 14.796875 -2.28125 L 18.015625 -14.6875 Z M 20.09375 -14.6875 "/></g></g></g><g fill="#edeef0" fill-opacity="1"><g transform="translate(181.862464, 331.643389)"><g><path d="M 10.3125 -3.265625 L 3.90625 -3.265625 L 2.71875 0 L 0.703125 0 L 6 -14.609375 L 8.21875 -14.609375 L 13.515625 0 L 11.484375 0 Z M 9.765625 -4.828125 L 7.109375 -12.25 L 4.453125 -4.828125 Z M 9.765625 -4.828125 "/></g></g></g><g fill="#edeef0" fill-opacity="1"><g transform="translate(202.671646, 331.643389)"><g><path d="M 9.359375 0 L 5.859375 -6 L 3.546875 -6 L 3.546875 0 L 1.625 0 L 1.625 -14.6875 L 6.359375 -14.6875 C 7.472656 -14.6875 8.410156 -14.492188 9.171875 -14.109375 C 9.941406 -13.734375 10.515625 -13.222656 10.890625 -12.578125 C 11.273438 -11.929688 11.46875 -11.195312 11.46875 -10.375 C 11.46875 -9.363281 11.175781 -8.46875 10.59375 -7.6875 C 10.007812 -6.914062 9.132812 -6.40625 7.96875 -6.15625 L 11.65625 0 Z M 3.546875 -7.546875 L 6.359375 -7.546875 C 7.398438 -7.546875 8.179688 -7.800781 8.703125 -8.3125 C 9.222656 -8.820312 9.484375 -9.507812 9.484375 -10.375 C 9.484375 -11.238281 9.226562 -11.910156 8.71875 -12.390625 C 8.207031 -12.867188 7.421875 -13.109375 6.359375 -13.109375 L 3.546875 -13.109375 Z M 3.546875 -7.546875 "/></g></g></g><g fill="#edeef0" fill-opacity="1"><g transform="translate(222.091195, 331.643389)"><g><path d="M 16.53125 -14.59375 L 16.53125 0 L 14.609375 0 L 14.609375 -10.875 L 9.765625 0 L 8.40625 0 L 3.546875 -10.890625 L 3.546875 0 L 1.625 0 L 1.625 -14.59375 L 3.6875 -14.59375 L 9.078125 -2.53125 L 14.484375 -14.59375 Z M 16.53125 -14.59375 "/></g></g></g></svg>