<svg xmlns="http://www.w3.org/2000/svg" xmlns:xlink="http://www.w3.org/1999/xlink" width="500" zoomAndPan="magnify" viewBox="0 0 375 374.999991" height="500" preserveAspectRatio="xMidYMid meet" version="1.0"><defs><clipPath id="aef3c5a3b0"><path d="M 45 18.332031 L 249 18.332031 L 249 143 L 45 143 Z M 45 18.332031 " clip-rule="nonzero"/></clipPath><clipPath id="88c7d5321b"><path d="M 25.929688 68 L 144 68 L 144 284 L 25.929688 284 Z M 25.929688 68 " clip-rule="nonzero"/></clipPath><clipPath id="354c144c70"><path d="M 126 233 L 318 233 L 318 356.582031 L 126 356.582031 Z M 126 233 " clip-rule="nonzero"/></clipPath><clipPath id="bcfa6548af"><path d="M 25.929688 255 L 146 255 L 146 356.582031 L 25.929688 356.582031 Z M 25.929688 255 " clip-rule="nonzero"/></clipPath><clipPath id="bc2da99165"><path d="M 229 18.332031 L 349 18.332031 L 349 120 L 229 120 Z M 229 18.332031 " clip-rule="nonzero"/></clipPath><clipPath id="7498c57a5b"><path d="M 231 88 L 349.179688 88 L 349.179688 318 L 231 318 Z M 231 88 " clip-rule="nonzero"/></clipPath></defs><path stroke-linecap="butt" transform="matrix(0.189967, 0, 0, 0.189967, -2.433736, -2.319051)" fill-opacity="1" fill="#d6fe00" fill-rule="nonzero" stroke-linejoin="miter" d="M 1254.533111 1050.111587 C 1257.165141 1142.972891 1193.955299 1224.853695 1103.499835 1246.156687 L 752.493976 1328.695498 L 741.513477 926.097742 C 739.333827 840.700711 797.27961 765.626171 880.250239 746.071012 L 1244.004992 660.488916 Z M 1254.533111 1050.111587 " stroke="#000000" stroke-width="5.488" stroke-opacity="1" stroke-miterlimit="10"/><path fill="#d6fe00" d="M 233.429688 107.511719 L 147.355469 127.777344 C 143.851562 128.613281 140.183594 127.902344 137.222656 125.859375 L 65.660156 75.820312 C 56.738281 69.5625 59.40625 55.632812 70.039062 53.175781 L 207.25 20.878906 C 215.679688 18.894531 224.390625 23.007812 228.144531 30.816406 C 230.324219 35.363281 231.621094 40.449219 231.761719 45.875 Z M 233.429688 107.511719 " fill-opacity="1" fill-rule="nonzero"/><g clip-path="url(#aef3c5a3b0)"><path stroke-linecap="butt" transform="matrix(0.189967, 0, 0, 0.189967, -2.433736, -2.319051)" fill="none" stroke-linejoin="miter" d="M 1241.599152 578.155731 L 788.499323 684.835192 C 770.054551 689.235617 750.746144 685.493199 735.159592 674.73889 L 358.450317 411.330276 C 311.485035 378.388777 325.529381 305.06207 381.501142 292.128111 L 1103.787713 122.115431 C 1148.162091 111.669563 1194.016987 133.322121 1213.777774 174.427025 C 1225.251779 198.362047 1232.078606 225.134725 1232.818865 253.696362 Z M 1241.599152 578.155731 " stroke="#000000" stroke-width="5.488" stroke-opacity="1" stroke-miterlimit="10"/></g><path fill="#d6fe00" d="M 128.296875 252.96875 L 64.035156 268.101562 C 55.09375 270.203125 46.261719 268.90625 38.785156 265.152344 C 34.050781 262.773438 31.035156 257.949219 30.890625 252.652344 L 26.753906 100.085938 C 26.378906 86.785156 41.308594 78.777344 52.191406 86.367188 L 118.5 132.738281 C 122.710938 135.703125 125.253906 140.453125 125.378906 145.582031 Z M 128.296875 252.96875 " fill-opacity="1" fill-rule="nonzero"/><g clip-path="url(#88c7d5321b)"><path stroke-linecap="butt" transform="matrix(0.189967, 0, 0, 0.189967, -2.433736, -2.319051)" fill="none" stroke-linejoin="miter" d="M 688.173747 1343.850233 L 349.89622 1423.510262 C 302.828124 1434.573012 256.335784 1427.746185 216.978712 1407.985398 C 192.056679 1395.462694 176.182249 1370.067718 175.421428 1342.184652 L 153.645493 539.065975 C 151.671471 469.049868 230.262238 426.896265 287.550013 466.849656 L 636.602411 710.949863 C 658.769038 726.556978 672.155377 751.561262 672.813385 778.560131 Z M 688.173747 1343.850233 " stroke="#000000" stroke-width="5.488" stroke-opacity="1" stroke-miterlimit="10"/></g><path fill="#d6fe00" d="M 290.097656 324.945312 L 164.445312 354.492188 C 157.5625 356.109375 150.4375 352.96875 146.992188 346.789062 C 144.421875 342.179688 142.886719 336.867188 142.726562 331.117188 L 140.976562 267.1875 L 219.75 248.628906 C 224.339844 247.546875 229.214844 248.503906 233.09375 251.214844 L 295.855469 295.125 C 307.613281 303.34375 304.109375 321.648438 290.097656 324.945312 Z M 290.097656 324.945312 " fill-opacity="1" fill-rule="nonzero"/><g clip-path="url(#354c144c70)"><path stroke-linecap="butt" transform="matrix(0.189967, 0, 0, 0.189967, -2.433736, -2.319051)" fill="none" stroke-linejoin="miter" d="M 1539.902724 1722.739157 L 878.461281 1878.275672 C 842.229745 1886.788644 804.723319 1870.256206 786.586988 1837.725962 C 773.05671 1813.461937 764.975556 1785.49662 764.132484 1755.228276 L 754.920379 1418.698582 L 1169.58846 1321.005036 C 1193.749671 1315.309159 1219.411962 1320.347029 1239.830757 1334.617566 L 1570.212193 1565.763251 C 1632.106021 1609.027242 1613.661249 1705.384211 1539.902724 1722.739157 Z M 1539.902724 1722.739157 " stroke="#000000" stroke-width="5.488" stroke-opacity="1" stroke-miterlimit="10"/></g><path fill="#d6fe00" d="M 130.464844 332.617188 C 130.839844 345.878906 115.914062 353.925781 105.027344 346.292969 L 38.722656 299.921875 C 38.710938 299.914062 38.699219 299.902344 38.6875 299.894531 C 36.648438 298.433594 36.4375 295.4375 38.242188 293.691406 C 40.265625 291.734375 42.867188 290.253906 45.980469 289.539062 L 128.757812 270.0625 Z M 130.464844 332.617188 " fill-opacity="1" fill-rule="nonzero"/><g clip-path="url(#bcfa6548af)"><path stroke-linecap="butt" transform="matrix(0.189967, 0, 0, 0.189967, -2.433736, -2.319051)" fill="none" stroke-linejoin="miter" d="M 699.586064 1763.124366 C 701.560086 1832.934845 622.989882 1875.294076 565.681544 1835.114495 L 216.649708 1591.014288 C 216.58802 1590.973162 216.526332 1590.911474 216.464644 1590.870349 C 205.730897 1583.179886 204.620509 1567.40827 214.120492 1558.216728 C 224.771988 1547.914799 238.466768 1540.121523 254.855267 1536.358542 L 690.600149 1433.832754 Z M 699.586064 1763.124366 " stroke="#000000" stroke-width="5.488" stroke-opacity="1" stroke-miterlimit="10"/></g><path fill="#d6fe00" d="M 332.425781 80.015625 C 334.167969 81.234375 333.671875 83.964844 331.597656 84.441406 C 331.582031 84.445312 331.566406 84.449219 331.550781 84.453125 L 245.894531 104.59375 L 244.226562 43.417969 C 243.933594 32.828125 255.78125 26.449219 264.453125 32.492188 Z M 332.425781 80.015625 " fill-opacity="1" fill-rule="nonzero"/><g clip-path="url(#bc2da99165)"><path stroke-linecap="butt" transform="matrix(0.189967, 0, 0, 0.189967, -2.433736, -2.319051)" fill="none" stroke-linejoin="miter" d="M 1762.720503 433.414651 C 1771.891482 439.830224 1769.280015 454.203575 1758.361203 456.712228 C 1758.278952 456.732791 1758.196702 456.753354 1758.114451 456.773917 L 1307.214834 562.79537 L 1298.434547 240.762403 C 1296.892342 185.016833 1359.259112 151.437889 1404.90838 183.248438 Z M 1762.720503 433.414651 " stroke="#000000" stroke-width="5.488" stroke-opacity="1" stroke-miterlimit="10"/></g><path fill="#d6fe00" d="M 348.316406 289.039062 C 348.605469 299.628906 336.722656 306.007812 328.046875 299.921875 L 255.027344 248.835938 C 251.691406 246.503906 249.648438 242.707031 249.523438 238.621094 L 246.3125 120.230469 L 313.992188 104.296875 C 319.257812 103.066406 324.488281 103.113281 329.367188 104.226562 C 337.59375 106.097656 343.496094 113.324219 343.726562 121.757812 Z M 348.316406 289.039062 " fill-opacity="1" fill-rule="nonzero"/><g clip-path="url(#7498c57a5b)"><path stroke-linecap="butt" transform="matrix(0.189967, 0, 0, 0.189967, -2.433736, -2.319051)" fill="none" stroke-linejoin="miter" d="M 1846.369702 1533.726513 C 1847.891344 1589.472083 1785.33951 1623.051026 1739.669679 1591.014288 L 1355.290504 1322.094861 C 1337.72993 1309.818909 1326.975621 1289.831932 1326.317613 1268.323313 L 1309.415046 645.107991 L 1665.684964 561.232602 C 1693.403529 554.755341 1720.937029 555.002094 1746.619883 560.862473 C 1789.924999 570.712022 1820.995289 608.753079 1822.20849 653.14802 Z M 1846.369702 1533.726513 " stroke="#000000" stroke-width="5.488" stroke-opacity="1" stroke-miterlimit="10"/></g></svg>